<?xml version="1.0" encoding="UTF-8"?>
<svg width="200px" height="200px" viewBox="0 0 200 200" version="1.1" xmlns="http://www.w3.org/2000/svg" xmlns:xlink="http://www.w3.org/1999/xlink">
    <!-- Generator: Sketch 48.1 (47250) - http://www.bohemiancoding.com/sketch -->
    <title>linkedin</title>
    <desc>Created with Sketch.</desc>
    <defs></defs>
    <g id="Page-1" stroke="none" stroke-width="1" fill="none" fill-rule="evenodd">
        <g id="linkedin">
            <circle id="Combined-Shape" fill="#0174B9" cx="100" cy="100" r="100"></circle>
            <path d="M145.760424,109.667935 L145.760424,142.48323 L126.736191,142.48323 L126.736191,111.865706 C126.736191,104.174334 123.984541,98.9252735 117.098399,98.9252735 C111.841703,98.9252735 108.71344,102.462756 107.337202,105.884674 C106.835326,107.107997 106.706143,108.810702 106.706143,110.523105 L106.706143,142.48323 L87.6755126,142.48323 C87.6755126,142.48323 87.9318162,90.6271934 87.6755126,85.2545211 L106.704285,85.2545211 L106.704285,93.3664615 C106.665696,93.4271324 106.615549,93.4925497 106.579229,93.5513631 L106.704285,93.5513631 L106.704285,93.3664615 C109.232444,89.4725897 113.74747,83.9100632 123.8535,83.9100632 C136.374189,83.9098568 145.760424,92.0894846 145.760424,109.667935 Z M67.7686633,57.6674436 C74.2796363,57.6674436 78.281849,61.9377225 78.4069051,67.5532844 C78.4069051,73.0472981 74.2796363,77.4463477 67.6431945,77.4463477 L67.5160746,77.4463477 C61.1351107,77.4463477 57,73.0464727 57,67.5532844 C57,61.9377225 61.2583096,57.6674436 67.7686633,57.6674436 Z M58.1302525,142.48323 L58.1302525,85.2545211 L77.1536599,85.2545211 L77.1536599,142.48323 L58.1302525,142.48323 Z" id="Combined-Shape" fill="#FFFFFF"></path>
        </g>
    </g>
</svg>